  0
SECTION
  2
HEADER
  9
$ACADVER
  1
AC1009
  9
$INSBASE
 10
0.0
 20
0.0
 30
0.0
  9
$EXTMIN
 10
4.0480516650140892
 20
5.510500331254633
 30
0.0
  9
$EXTMAX
 10
2967.0373479540721746
 20
2114.7497238828391346
 30
0.0000000000000022
  9
$LIMMIN
 10
0.0
 20
0.0
  9
$LIMMAX
 10
420.0
 20
297.0
  9
$ORTHOMODE
 70
     0
  9
$REGENMODE
 70
     1
  9
$FILLMODE
 70
     1
  9
$QTEXTMODE
 70
     0
  9
$MIRRTEXT
 70
     0
  9
$DRAGMODE
 70
     2
  9
$LTSCALE
 40
1.0
  9
$OSMODE
 70
   167
  9
$ATTMODE
 70
     1
  9
$TEXTSIZE
 40
2.5
  9
$TRACEWID
 40
1.0
  9
$TEXTSTYLE
  7
STANDARD
  9
$CLAYER
  8
0
  9
$CELTYPE
  6
BYLAYER
  9
$CECOLOR
 62
   256
  9
$DIMSCALE
 40
1.0
  9
$DIMASZ
 40
2.5
  9
$DIMEXO
 40
0.625
  9
$DIMDLI
 40
3.75
  9
$DIMRND
 40
0.0
  9
$DIMDLE
 40
0.0
  9
$DIMEXE
 40
1.25
  9
$DIMTP
 40
0.0
  9
$DIMTM
 40
0.0
  9
$DIMTXT
 40
2.5
  9
$DIMCEN
 40
2.5
  9
$DIMTSZ
 40
0.0
  9
$DIMTOL
 70
     0
  9
$DIMLIM
 70
     0
  9
$DIMTIH
 70
     0
  9
$DIMTOH
 70
     0
  9
$DIMSE1
 70
     0
  9
$DIMSE2
 70
     0
  9
$DIMTAD
 70
     1
  9
$DIMZIN
 70
     8
  9
$DIMBLK
  1

  9
$DIMASO
 70
     1
  9
$DIMSHO
 70
     1
  9
$DIMPOST
  1

  9
$DIMAPOST
  1

  9
$DIMALT
 70
     0
  9
$DIMALTD
 70
     3
  9
$DIMALTF
 40
0.03937007874016
  9
$DIMLFAC
 40
1.0
  9
$DIMTOFL
 70
     1
  9
$DIMTVP
 40
0.0
  9
$DIMTIX
 70
     0
  9
$DIMSOXD
 70
     0
  9
$DIMSAH
 70
     0
  9
$DIMBLK1
  1

  9
$DIMBLK2
  1

  9
$DIMSTYLE
  2
ISO-25
  9
$DIMCLRD
 70
     0
  9
$DIMCLRE
 70
     0
  9
$DIMCLRT
 70
     0
  9
$DIMTFAC
 40
1.0
  9
$DIMGAP
 40
0.625
  9
$LUNITS
 70
     2
  9
$LUPREC
 70
     4
  9
$SKETCHINC
 40
1.0
  9
$FILLETRAD
 40
0.0
  9
$AUNITS
 70
     0
  9
$AUPREC
 70
     0
  9
$MENU
  1
.
  9
$ELEVATION
 40
0.0
  9
$PELEVATION
 40
0.0
  9
$THICKNESS
 40
0.0
  9
$LIMCHECK
 70
     0
  9
$BLIPMODE
 70
     0
  9
$CHAMFERA
 40
0.0
  9
$CHAMFERB
 40
0.0
  9
$SKPOLY
 70
     0
  9
$TDCREATE
 40
2459150.6031712968833745
  9
$TDUPDATE
 40
2459152.9095486109144986
  9
$TDINDWG
 40
2.3063773148000002
  9
$TDUSRTIMER
 40
2.3063773148000002
  9
$USRTIMER
 70
     1
  9
$ANGBASE
 50
0.0
  9
$ANGDIR
 70
     0
  9
$PDMODE
 70
     0
  9
$PDSIZE
 40
0.0
  9
$PLINEWID
 40
0.0
  9
$COORDS
 70
     1
  9
$SPLFRAME
 70
     0
  9
$SPLINETYPE
 70
     6
  9
$SPLINESEGS
 70
     8
  9
$ATTDIA
 70
     1
  9
$ATTREQ
 70
     1
  9
$HANDLING
 70
     1
  9
$HANDSEED
  5
1087
  9
$SURFTAB1
 70
     6
  9
$SURFTAB2
 70
     6
  9
$SURFTYPE
 70
     6
  9
$SURFU
 70
     6
  9
$SURFV
 70
     6
  9
$UCSNAME
  2

  9
$UCSORG
 10
0.0
 20
0.0
 30
0.0
  9
$UCSXDIR
 10
1.0
 20
0.0
 30
0.0
  9
$UCSYDIR
 10
0.0
 20
1.0
 30
0.0
  9
$PUCSNAME
  2

  9
$PUCSORG
 10
0.0
 20
0.0
 30
0.0
  9
$PUCSXDIR
 10
1.0
 20
0.0
 30
0.0
  9
$PUCSYDIR
 10
0.0
 20
1.0
 30
0.0
  9
$USERI1
 70
     0
  9
$USERI2
 70
     0
  9
$USERI3
 70
     0
  9
$USERI4
 70
     0
  9
$USERI5
 70
     0
  9
$USERR1
 40
0.0
  9
$USERR2
 40
0.0
  9
$USERR3
 40
0.0
  9
$USERR4
 40
0.0
  9
$USERR5
 40
0.0
  9
$WORLDVIEW
 70
     1
  9
$SHADEDGE
 70
     3
  9
$SHADEDIF
 70
    70
  9
$TILEMODE
 70
     1
  9
$MAXACTVP
 70
    64
  9
$PLIMCHECK
 70
     0
  9
$PEXTMIN
 10
0.0
 20
0.0
 30
0.0
  9
$PEXTMAX
 10
0.0
 20
0.0
 30
0.0
  9
$PLIMMIN
 10
0.0
 20
0.0
  9
$PLIMMAX
 10
12.0
 20
9.0
  9
$UNITMODE
 70
     0
  9
$VISRETAIN
 70
     1
  9
$PLINEGEN
 70
     0
  9
$PSLTSCALE
 70
     1
  0
ENDSEC
  0
SECTION
  2
TABLES
  0
TABLE
  2
VPORT
 70
     1
  0
VPORT
  2
*ACTIVE
 70
     0
 10
0.0
 20
0.0
 11
1.0
 21
1.0
 12
371.0282777005680259
 22
177.8537149231682974
 13
0.0
 23
0.0
 14
10.0
 24
10.0
 15
10.0
 25
10.0
 16
0.0
 26
0.0
 36
1.0
 17
0.0
 27
0.0
 37
0.0
 40
725.7792411715951175
 41
2.305925030229746
 42
50.0
 43
0.0
 44
0.0
 50
0.0
 51
0.0
 71
     0
 72
  1000
 73
     1
 74
     3
 75
     0
 76
     1
 77
     0
 78
     0
  0
ENDTAB
  0
TABLE
  2
LTYPE
 70
     2
  0
LTYPE
  2
CONTINUOUS
 70
     0
  3
Solid line
 72
    65
 73
     0
 40
0.0
  0
ENDTAB
  0
TABLE
  2
LAYER
 70
     1
  0
LAYER
  2
0
 70
     0
 62
     7
  6
CONTINUOUS
  0
ENDTAB
  0
TABLE
  2
STYLE
 70
     2
  0
STYLE
  2
STANDARD
 70
     0
 40
0.0
 41
1.0
 50
0.0
 71
     0
 42
2.5
  3
txt
  4

  0
STYLE
  2
ANNOTATIVE
 70
     0
 40
0.0
 41
1.0
 50
0.0
 71
     0
 42
2.5
  3
txt
  4

  0
ENDTAB
  0
TABLE
  2
VIEW
 70
     0
  0
ENDTAB
  0
TABLE
  2
UCS
 70
     0
  0
ENDTAB
  0
TABLE
  2
APPID
 70
     9
  0
APPID
  2
ACAD
 70
     0
  0
APPID
  2
ACAD_PSEXT
 70
     0
  0
APPID
  2
ACADANNOPO
 70
     0
  0
APPID
  2
ACADANNOTATIVE
 70
     0
  0
APPID
  2
ACAD_DSTYLE_DIMJAG
 70
     0
  0
APPID
  2
ACAD_DSTYLE_DIMTALN
 70
     0
  0
APPID
  2
ACAD_MLEADERVER
 70
     0
  0
APPID
  2
ACAD_NAV_VCDISPLAY
 70
     0
  0
APPID
  2
ACAD_EXEMPT_FROM_CAD_STANDARDS
 70
     0
  0
ENDTAB
  0
TABLE
  2
DIMSTYLE
 70
     4
  0
DIMSTYLE
  2
STANDARD
 70
     0
  3

  4

  5

  6

  7

 40
1.0
 41
0.18
 42
0.0625
 43
0.38
 44
0.18
 45
0.0
 46
0.0
 47
0.0
 48
0.0
140
0.18
141
0.09
142
0.0
143
25.3999999999999986
144
1.0
145
0.0
146
1.0
147
0.09
 71
     0
 72
     0
 73
     1
 74
     1
 75
     0
 76
     0
 77
     0
 78
     0
170
     0
171
     2
172
     0
173
     0
174
     0
175
     0
176
     0
177
     0
178
     0
  0
DIMSTYLE
  2
ANNOTATIVE
 70
     0
  3

  4

  5

  6

  7

 40
0.0
 41
2.5
 42
0.625
 43
3.75
 44
1.25
 45
0.0
 46
0.0
 47
0.0
 48
0.0
140
2.5
141
2.5
142
0.0
143
0.03937007874016
144
1.0
145
0.0
146
1.0
147
0.625
 71
     0
 72
     0
 73
     0
 74
     0
 75
     0
 76
     0
 77
     1
 78
     8
170
     0
171
     3
172
     1
173
     0
174
     0
175
     0
176
     0
177
     0
178
     0
  0
DIMSTYLE
  2
ISO-25
 70
     0
  3

  4

  5

  6

  7

 40
1.0
 41
2.5
 42
0.625
 43
3.75
 44
1.25
 45
0.0
 46
0.0
 47
0.0
 48
0.0
140
2.5
141
2.5
142
0.0
143
0.03937007874016
144
1.0
145
0.0
146
1.0
147
0.625
 71
     0
 72
     0
 73
     0
 74
     0
 75
     0
 76
     0
 77
     1
 78
     8
170
     0
171
     3
172
     1
173
     0
174
     0
175
     0
176
     0
177
     0
178
     0
  0
ENDTAB
  0
ENDSEC
  0
SECTION
  2
BLOCKS
  0
BLOCK
  8
0
  2
$MODEL_SPACE
 70
     0
 10
0.0
 20
0.0
 30
0.0
  3
$MODEL_SPACE
  1

  0
ENDBLK
  5
21
  8
0
  0
BLOCK
 67
     1
  8
0
  2
$PAPER_SPACE
 70
     0
 10
0.0
 20
0.0
 30
0.0
  3
$PAPER_SPACE
  1

  0
ENDBLK
  5
D5
 67
     1
  8
0
  0
ENDSEC
  0
SECTION
  2
ENTITIES
  0
CIRCLE
  5
2A7
  8
0
 10
217.5324266650140999
 20
474.2541103078028186
 30
0.0000000000000022
 40
1.600000000000001
  0
CIRCLE
  5
2A8
  8
0
 10
118.1261766650140999
 20
370.0041103078028755
 30
0.0
 40
1.600000000000001
  0
CIRCLE
  5
2A9
  8
0
 10
217.5324266650140999
 20
370.0041103078028755
 30
0.0
 40
1.600000000000001
  0
CIRCLE
  5
2AA
  8
0
 10
118.1261766650140999
 20
474.2541103078028186
 30
0.0000000000000022
 40
1.600000000000001
  0
CIRCLE
  5
2AB
  8
0
 10
313.0855516650140089
 20
474.2541103078028186
 30
0.0000000000000022
 40
1.600000000000001
  0
CIRCLE
  5
2AC
  8
0
 10
22.5730516650141908
 20
370.0041103078028755
 30
0.0
 40
1.599999999999999
  0
CIRCLE
  5
2AD
  8
0
 10
327.1105516650140999
 20
379.2666103078029209
 30
0.0
 40
1.600000000000001
  0
CIRCLE
  5
2AE
  8
0
 10
22.5730516650141908
 20
474.2541103078028186
 30
0.0000000000000022
 40
1.600000000000001
  0
POLYLINE
  5
2AF
  8
0
 66
     1
 10
0.0
 20
0.0
 30
0.0
 70
     1
  0
VERTEX
  5
CA3
  8
0
 10
31.7980516650140999
 20
392.7541103078028755
 30
0.0
  0
VERTEX
  5
CA4
  8
0
 10
31.7980516650140999
 20
374.7041103078029209
 30
0.0
 42
0.4142135623730951
  0
VERTEX
  5
CA5
  8
0
 10
32.2980516650140999
 20
374.2041103078029209
 30
0.0
  0
VERTEX
  5
CA6
  8
0
 10
260.498051665013918
 20
374.2041103078029209
 30
0.0
 42
0.4142135623730951
  0
VERTEX
  5
CA7
  8
0
 10
260.998051665013918
 20
374.7041103078029209
 30
0.0
  0
VERTEX
  5
CA8
  8
0
 10
260.998051665013918
 20
392.7541103078028755
 30
0.0
 42
-0.4142135623730952
  0
VERTEX
  5
CA9
  8
0
 10
261.498051665013918
 20
393.2541103078028755
 30
0.0
  0
VERTEX
  5
CAA
  8
0
 10
279.5480516650140999
 20
393.2541103078028755
 30
0.0
 42
0.4142135623730953
  0
VERTEX
  5
CAB
  8
0
 10
280.0480516650140999
 20
393.7541103078028755
 30
0.0
  0
VERTEX
  5
CAC
  8
0
 10
280.0480516650140999
 20
411.8041103078027731
 30
0.0
 42
-0.4142135623730948
  0
VERTEX
  5
CAD
  8
0
 10
280.5480516650140999
 20
412.3041103078027731
 30
0.0
  0
VERTEX
  5
CAE
  8
0
 10
298.5980516650142818
 20
412.3041103078027731
 30
0.0
 42
0.4142135623730946
  0
VERTEX
  5
CAF
  8
0
 10
299.0980516650142818
 20
412.8041103078027731
 30
0.0
  0
VERTEX
  5
CB0
  8
0
 10
299.0980516650142818
 20
469.5541103078030005
 30
0.0
 42
0.4142135623730951
  0
VERTEX
  5
CB1
  8
0
 10
298.5980516650142818
 20
470.0541103078030005
 30
0.0
  0
VERTEX
  5
CB2
  8
0
 10
13.2480516650139197
 20
470.0541103078030005
 30
0.0
 42
0.4142135623730951
  0
VERTEX
  5
CB3
  8
0
 10
12.7480516650139197
 20
469.5541103078030005
 30
0.0
  0
VERTEX
  5
CB4
  8
0
 10
12.7480516650139197
 20
393.7541103078028755
 30
0.0
 42
0.4142135623730948
  0
VERTEX
  5
CB5
  8
0
 10
13.2480516650139197
 20
393.2541103078028755
 30
0.0
  0
VERTEX
  5
CB6
  8
0
 10
31.2980516650140999
 20
393.2541103078028755
 30
0.0
 42
-0.4142135623730948
  0
SEQEND
  5
CB7
  8
0
  0
POLYLINE
  5
2B0
  8
0
 66
     1
 10
0.0
 20
0.0
 30
0.0
 70
     1
  0
VERTEX
  5
CB8
  8
0
 10
265.6605516650142818
 20
369.4416103078028755
 30
0.0
  0
VERTEX
  5
CB9
  8
0
 10
322.4105516650142818
 20
369.4416103078028755
 30
0.0
 42
0.4142135623730951
  0
VERTEX
  5
CBA
  8
0
 10
322.9105516650142818
 20
369.9416103078028755
 30
0.0
  0
VERTEX
  5
CBB
  8
0
 10
322.9105516650142818
 20
445.7416103078030005
 30
0.0
 42
0.4142135623730951
  0
VERTEX
  5
CBC
  8
0
 10
322.4105516650142818
 20
446.2416103078030005
 30
0.0
  0
VERTEX
  5
CBD
  8
0
 10
303.7605516650141908
 20
446.2416103078030005
 30
0.0
 42
0.4142135623730951
  0
VERTEX
  5
CBE
  8
0
 10
303.2605516650141908
 20
445.7416103078030005
 30
0.0
  0
VERTEX
  5
CBF
  8
0
 10
303.2605516650141908
 20
408.6416103078029209
 30
0.0
 42
-0.4142135623730951
  0
VERTEX
  5
CC0
  8
0
 10
302.7605516650141908
 20
408.1416103078029209
 30
0.0
  0
VERTEX
  5
CC1
  8
0
 10
284.7105516650140089
 20
408.1416103078029209
 30
0.0
 42
0.414213562373095
  0
VERTEX
  5
CC2
  8
0
 10
284.2105516650140089
 20
407.6416103078029209
 30
0.0
  0
VERTEX
  5
CC3
  8
0
 10
284.2105516650140089
 20
389.5916103078030233
 30
0.0
 42
-0.4142135623730956
  0
VERTEX
  5
CC4
  8
0
 10
283.7105516650140089
 20
389.0916103078030233
 30
0.0
  0
VERTEX
  5
CC5
  8
0
 10
265.6605516650142818
 20
389.0916103078030233
 30
0.0
 42
0.4142135623730958
  0
VERTEX
  5
CC6
  8
0
 10
265.1605516650142818
 20
388.5916103078029096
 30
0.0
  0
VERTEX
  5
CC7
  8
0
 10
265.1605516650142818
 20
369.9416103078028755
 30
0.0
 42
0.4142135623730951
  0
SEQEND
  5
CC8
  8
0
  0
CIRCLE
  5
2B1
  8
0
 10
313.5105516650141908
 20
460.2541103078028755
 30
0.0000000000000022
 40
10.0250000000000004
  0
POLYLINE
  5
2B2
  8
0
 66
     1
 10
0.0
 20
0.0
 30
0.0
 70
     1
  0
VERTEX
  5
CC9
  8
0
 10
15.5480516650140999
 20
478.7541103078028186
 30
0.0
  0
VERTEX
  5
CCA
  8
0
 10
320.1105516650140999
 20
478.7541103078028186
 30
0.0
 42
-0.4142135623730958
  0
VERTEX
  5
CCB
  8
0
 10
331.6105516650140999
 20
467.2541103078028186
 30
0.0
  0
VERTEX
  5
CCC
  8
0
 10
331.6105516650140999
 20
377.0041103078028755
 30
0.0
 42
-0.4142135623730965
  0
VERTEX
  5
CCD
  8
0
 10
320.1105516650140999
 20
365.5041103078028755
 30
0.0
  0
VERTEX
  5
CCE
  8
0
 10
15.5480516650140999
 20
365.5041103078028755
 30
0.0
 42
-0.4142135623730927
  0
VERTEX
  5
CCF
  8
0
 10
4.048051665014099
 20
377.0041103078028755
 30
0.0
  0
VERTEX
  5
CD0
  8
0
 10
4.048051665014099
 20
467.2541103078028186
 30
0.0
 42
-0.4142135623730951
  0
SEQEND
  5
CD1
  8
0
  0
POLYLINE
  5
2C3
  8
0
 66
     1
 10
0.0
 20
0.0
 30
0.0
 70
     1
  0
VERTEX
  5
D39
  8
0
 10
219.0329636767683041
 20
248.7994606081830966
 30
0.0
  0
VERTEX
  5
D3A
  8
0
 10
221.3829636767682132
 20
250.156233740778589
 30
0.0
  0
VERTEX
  5
D3B
  8
0
 10
221.3829636767682132
 20
252.8697800059698864
 30
0.0
  0
VERTEX
  5
D3C
  8
0
 10
219.0329636767683041
 20
254.2265531385656061
 30
0.0
  0
VERTEX
  5
D3D
  8
0
 10
216.6829636767683951
 20
252.8697800059698864
 30
0.0
  0
VERTEX
  5
D3E
  8
0
 10
216.6829636767683951
 20
250.156233740778589
 30
0.0
  0
SEQEND
  5
D3F
  8
0
  0
POLYLINE
  5
2C4
  8
0
 66
     1
 10
0.0
 20
0.0
 30
0.0
 70
     1
  0
VERTEX
  5
D40
  8
0
 10
24.0735886767683986
 20
353.0494606081830966
 30
0.0
  0
VERTEX
  5
D41
  8
0
 10
26.4235886767683112
 20
354.406233740778589
 30
0.0
  0
VERTEX
  5
D42
  8
0
 10
26.4235886767683112
 20
357.1197800059699148
 30
0.0
  0
VERTEX
  5
D43
  8
0
 10
24.0735886767683986
 20
358.4765531385655777
 30
0.0
  0
VERTEX
  5
D44
  8
0
 10
21.7235886767684896
 20
357.1197800059699148
 30
0.0
  0
VERTEX
  5
D45
  8
0
 10
21.7235886767684896
 20
354.406233740778589
 30
0.0
  0
SEQEND
  5
D46
  8
0
  0
POLYLINE
  5
2C5
  8
0
 66
     1
 10
0.0
 20
0.0
 30
0.0
 70
     1
  0
VERTEX
  5
D47
  8
0
 10
314.5860887506595986
 20
353.0494606081830966
 30
0.0
  0
VERTEX
  5
D48
  8
0
 10
316.9360887137141276
 20
354.4062338047704088
 30
0.0
  0
VERTEX
  5
D49
  8
0
 10
316.9360886398225716
 20
357.1197800699615073
 30
0.0
  0
VERTEX
  5
D4A
  8
0
 10
314.5860886028772256
 20
358.4765531385655777
 30
0.0
  0
VERTEX
  5
D4B
  8
0
 10
312.2360886398228104
 20
357.1197799419783223
 30
0.0
  0
VERTEX
  5
D4C
  8
0
 10
312.2360887137137979
 20
354.4062336767869965
 30
0.0
  0
SEQEND
  5
D4D
  8
0
  0
POLYLINE
  5
2C6
  8
0
 66
     1
 10
0.0
 20
0.0
 30
0.0
 70
     1
  0
VERTEX
  5
D4E
  8
0
 10
119.6267136767683041
 20
248.7994606081830966
 30
0.0
  0
VERTEX
  5
D4F
  8
0
 10
121.976713676768199
 20
250.156233740778589
 30
0.0
  0
VERTEX
  5
D50
  8
0
 10
121.976713676768199
 20
252.8697800059698864
 30
0.0
  0
VERTEX
  5
D51
  8
0
 10
119.6267136767683041
 20
254.2265531385656061
 30
0.0
  0
VERTEX
  5
D52
  8
0
 10
117.2767136767683951
 20
252.8697800059698864
 30
0.0
  0
VERTEX
  5
D53
  8
0
 10
117.2767136767683951
 20
250.156233740778589
 30
0.0
  0
SEQEND
  5
D54
  8
0
  0
POLYLINE
  5
2C7
  8
0
 66
     1
 10
0.0
 20
0.0
 30
0.0
 70
     1
  0
VERTEX
  5
D55
  8
0
 10
325.8975424115769783
 20
260.7755068733742974
 30
0.0
  0
VERTEX
  5
D56
  8
0
 10
327.2543155441725844
 20
258.4255068733743883
 30
0.0
  0
VERTEX
  5
D57
  8
0
 10
329.9678618093640239
 20
258.4255068733743883
 30
0.0
  0
VERTEX
  5
D58
  8
0
 10
331.3246349419595731
 20
260.7755068733742974
 30
0.0
  0
VERTEX
  5
D59
  8
0
 10
329.9678618093640239
 20
263.1255068733742064
 30
0.0
  0
VERTEX
  5
D5A
  8
0
 10
327.2543155441725844
 20
263.1255068733742064
 30
0.0
  0
SEQEND
  5
D5B
  8
0
  0
POLYLINE
  5
2C8
  8
0
 66
     1
 10
0.0
 20
0.0
 30
0.0
 70
     1
  0
VERTEX
  5
D5C
  8
0
 10
119.6267136767683041
 20
353.0494606081830966
 30
0.0
  0
VERTEX
  5
D5D
  8
0
 10
121.976713676768199
 20
354.406233740778589
 30
0.0
  0
VERTEX
  5
D5E
  8
0
 10
121.976713676768199
 20
357.1197800059699148
 30
0.0
  0
VERTEX
  5
D5F
  8
0
 10
119.6267136767683041
 20
358.4765531385655777
 30
0.0
  0
VERTEX
  5
D60
  8
0
 10
117.2767136767683951
 20
357.1197800059699148
 30
0.0
  0
VERTEX
  5
D61
  8
0
 10
117.2767136767683951
 20
354.406233740778589
 30
0.0
  0
SEQEND
  5
D62
  8
0
  0
POLYLINE
  5
2C9
  8
0
 66
     1
 10
0.0
 20
0.0
 30
0.0
 70
     1
  0
VERTEX
  5
D63
  8
0
 10
219.0329637490989967
 20
353.0494606081830966
 30
0.0
  0
VERTEX
  5
D64
  8
0
 10
221.3829637129337868
 20
354.4062338034191271
 30
0.0
  0
VERTEX
  5
D65
  8
0
 10
221.3829636406030943
 20
357.1197800686102255
 30
0.0
  0
VERTEX
  5
D66
  8
0
 10
219.0329636044376116
 20
358.4765531385655777
 30
0.0
  0
VERTEX
  5
D67
  8
0
 10
216.682963640602793
 20
357.1197799433296041
 30
0.0
  0
VERTEX
  5
D68
  8
0
 10
216.682963712933514
 20
354.4062336781385056
 30
0.0
  0
SEQEND
  5
D69
  8
0
  0
POLYLINE
  5
2CA
  8
0
 66
     1
 10
0.0
 20
0.0
 30
0.0
 70
     1
  0
VERTEX
  5
D6A
  8
0
 10
24.0735886767683986
 20
248.7994606081830966
 30
0.0
  0
VERTEX
  5
D6B
  8
0
 10
26.4235886767683112
 20
250.156233740778589
 30
0.0
  0
VERTEX
  5
D6C
  8
0
 10
26.4235886767683112
 20
252.8697800059698864
 30
0.0
  0
VERTEX
  5
D6D
  8
0
 10
24.0735886767683986
 20
254.2265531385656061
 30
0.0
  0
VERTEX
  5
D6E
  8
0
 10
21.7235886767684896
 20
252.8697800059698864
 30
0.0
  0
VERTEX
  5
D6F
  8
0
 10
21.7235886767684896
 20
250.156233740778589
 30
0.0
  0
SEQEND
  5
D70
  8
0
  0
POLYLINE
  5
2CB
  8
0
 66
     1
 10
0.0
 20
0.0
 30
0.0
 70
     1
  0
VERTEX
  5
D71
  8
0
 10
267.161088676768486
 20
250.9505068733743087
 30
0.0
  0
VERTEX
  5
D72
  8
0
 10
323.911088676768486
 20
250.9505068733743087
 30
0.0
 42
0.4142135623730951
  0
VERTEX
  5
D73
  8
0
 10
324.411088676768486
 20
251.450506873374195
 30
0.0
  0
VERTEX
  5
D74
  8
0
 10
324.411088676768486
 20
327.2505068733742064
 30
0.0
 42
0.4142135623730951
  0
VERTEX
  5
D75
  8
0
 10
323.911088676768486
 20
327.7505068733744906
 30
0.0
  0
VERTEX
  5
D76
  8
0
 10
305.2610886767683951
 20
327.7505068733742064
 30
0.0
 42
0.414213562373095
  0
VERTEX
  5
D77
  8
0
 10
304.7610886767683951
 20
327.2505068733742064
 30
0.0
  0
VERTEX
  5
D78
  8
0
 10
304.7610886767683951
 20
290.1505068733742974
 30
0.0
 42
-0.4142135623730951
  0
VERTEX
  5
D79
  8
0
 10
304.2610886767683951
 20
289.6505068733742974
 30
0.0
  0
VERTEX
  5
D7A
  8
0
 10
286.2110886767682132
 20
289.6505068733742974
 30
0.0
 42
0.4142135623730951
  0
VERTEX
  5
D7B
  8
0
 10
285.7110886767682132
 20
289.1505068733742974
 30
0.0
  0
VERTEX
  5
D7C
  8
0
 10
285.7110886767682132
 20
271.1005068733743997
 30
0.0
 42
-0.4142135623730951
  0
VERTEX
  5
D7D
  8
0
 10
285.2110886767682132
 20
270.600506873374286
 30
0.0
  0
VERTEX
  5
D7E
  8
0
 10
267.161088676768486
 20
270.600506873374286
 30
0.0
 42
0.4142135623730951
  0
VERTEX
  5
D7F
  8
0
 10
266.661088676768486
 20
270.100506873374286
 30
0.0
  0
VERTEX
  5
D80
  8
0
 10
266.661088676768486
 20
251.450506873374195
 30
0.0
 42
0.4142135623730951
  0
SEQEND
  5
D81
  8
0
  0
POLYLINE
  5
2CC
  8
0
 66
     1
 10
0.0
 20
0.0
 30
0.0
 70
     1
  0
VERTEX
  5
D82
  8
0
 10
14.7485886767681205
 20
274.7630068733743087
 30
0.0
  0
VERTEX
  5
D83
  8
0
 10
32.7985886767683112
 20
274.7630068733743087
 30
0.0
 42
-0.4142135623730951
  0
VERTEX
  5
D84
  8
0
 10
33.2985886767683112
 20
274.263006873374195
 30
0.0
  0
VERTEX
  5
D85
  8
0
 10
33.2985886767683112
 20
256.2130068733742974
 30
0.0
 42
0.4142135623730951
  0
VERTEX
  5
D86
  8
0
 10
33.798588676768297
 20
255.7130068733742974
 30
0.0
  0
VERTEX
  5
D87
  8
0
 10
261.9985886767681222
 20
255.7130068733742974
 30
0.0
 42
0.4142135623730951
  0
VERTEX
  5
D88
  8
0
 10
262.4985886767681222
 20
256.2130068733742974
 30
0.0
  0
VERTEX
  5
D89
  8
0
 10
262.4985886767681222
 20
274.263006873374195
 30
0.0
 42
-0.4142135623730949
  0
VERTEX
  5
D8A
  8
0
 10
262.9985886767681222
 20
274.7630068733743087
 30
0.0
  0
VERTEX
  5
D8B
  8
0
 10
281.0485886767683041
 20
274.7630068733743087
 30
0.0
 42
0.4142135623730948
  0
VERTEX
  5
D8C
  8
0
 10
281.5485886767683041
 20
275.2630068733743087
 30
0.0
  0
VERTEX
  5
D8D
  8
0
 10
281.5485886767683041
 20
293.3130068733743769
 30
0.0
 42
-0.4142135623730951
  0
VERTEX
  5
D8E
  8
0
 10
282.0485886767683041
 20
293.8130068733742064
 30
0.0
  0
VERTEX
  5
D8F
  8
0
 10
300.098588676768486
 20
293.8130068733742064
 30
0.0
 42
0.4142135623730951
  0
VERTEX
  5
D90
  8
0
 10
300.598588676768486
 20
294.3130068733742064
 30
0.0
  0
VERTEX
  5
D91
  8
0
 10
300.598588676768486
 20
351.0630068733742064
 30
0.0
 42
0.4142135623730951
  0
VERTEX
  5
D92
  8
0
 10
300.098588676768486
 20
351.5630068733742064
 30
0.0
  0
VERTEX
  5
D93
  8
0
 10
14.7485886767681205
 20
351.5630068733742064
 30
0.0
 42
0.4142135623730951
  0
VERTEX
  5
D94
  8
0
 10
14.2485886767681205
 20
351.0630068733742064
 30
0.0
  0
VERTEX
  5
D95
  8
0
 10
14.2485886767681205
 20
275.2630068733743087
 30
0.0
 42
0.4142135623730951
  0
SEQEND
  5
D96
  8
0
  0
CIRCLE
  5
2CD
  8
0
 10
315.0110886767683951
 20
341.7630068733743087
 30
0.0000000000000022
 40
10.0250000000000004
  0
POLYLINE
  5
2CE
  8
0
 66
     1
 10
0.0
 20
0.0
 30
0.0
 70
     1
  0
VERTEX
  5
D97
  8
0
 10
4.0485886767683041
 20
348.763006873374195
 30
0.0
 42
-0.4142135623730951
  0
VERTEX
  5
D98
  8
0
 10
17.0485886767683006
 20
361.763006873374195
 30
0.0
  0
VERTEX
  5
D99
  8
0
 10
321.6110886767683041
 20
361.763006873374195
 30
0.0
 42
-0.4142135623730958
  0
VERTEX
  5
D9A
  8
0
 10
334.6110886767683041
 20
348.763006873374195
 30
0.0
  0
VERTEX
  5
D9B
  8
0
 10
334.6110886767683041
 20
258.5130068733743087
 30
0.0
 42
-0.4142135623730966
  0
VERTEX
  5
D9C
  8
0
 10
321.6110886767683041
 20
245.5130068733743087
 30
0.0
  0
VERTEX
  5
D9D
  8
0
 10
17.0485886767683006
 20
245.5130068733743087
 30
0.0
 42
-0.4142135623730934
  0
VERTEX
  5
D9E
  8
0
 10
4.0485886767683041
 20
258.5130068733743087
 30
0.0
  0
SEQEND
  5
D9F
  8
0
  0
POLYLINE
  5
2DD
  8
0
 66
     1
 10
0.0
 20
0.0
 30
0.0
 70
     1
  0
VERTEX
  5
E16
  8
0
 10
219.0390647269913984
 20
128.7838850055088074
 30
0.0
  0
VERTEX
  5
E17
  8
0
 10
221.3890647269913927
 20
130.1406581381042997
 30
0.0
  0
VERTEX
  5
E18
  8
0
 10
221.3890647269913927
 20
132.8542044032955971
 30
0.0
  0
VERTEX
  5
E19
  8
0
 10
219.0390647269913984
 20
134.2109775358912884
 30
0.0
  0
VERTEX
  5
E1A
  8
0
 10
216.6890647269914894
 20
132.8542044032955971
 30
0.0
  0
VERTEX
  5
E1B
  8
0
 10
216.6890647269914894
 20
130.1406581381042997
 30
0.0
  0
SEQEND
  5
E1C
  8
0
  0
POLYLINE
  5
2DE
  8
0
 66
     1
 10
0.0
 20
0.0
 30
0.0
 70
     1
  0
VERTEX
  5
E1D
  8
0
 10
24.0796897269915497
 20
233.0338850055086937
 30
0.0
  0
VERTEX
  5
E1E
  8
0
 10
26.4296897269914588
 20
234.3906581381042997
 30
0.0
  0
VERTEX
  5
E1F
  8
0
 10
26.4296897269914588
 20
237.1042044032955971
 30
0.0
  0
VERTEX
  5
E20
  8
0
 10
24.0796897269915497
 20
238.4609775358912884
 30
0.0
  0
VERTEX
  5
E21
  8
0
 10
21.7296897269916407
 20
237.1042044032955971
 30
0.0
  0
VERTEX
  5
E22
  8
0
 10
21.7296897269916407
 20
234.3906581381042997
 30
0.0
  0
SEQEND
  5
E23
  8
0
  0
POLYLINE
  5
2DF
  8
0
 66
     1
 10
0.0
 20
0.0
 30
0.0
 70
     1
  0
VERTEX
  5
E24
  8
0
 10
314.5921898008828066
 20
233.0338850055086937
 30
0.0
  0
VERTEX
  5
E25
  8
0
 10
316.9421897639372219
 20
234.3906582020960911
 30
0.0
  0
VERTEX
  5
E26
  8
0
 10
316.9421896900457796
 20
237.1042044672871896
 30
0.0
  0
VERTEX
  5
E27
  8
0
 10
314.5921896531003767
 20
238.4609775358912884
 30
0.0
  0
VERTEX
  5
E28
  8
0
 10
312.2421896900460183
 20
237.1042043393040046
 30
0.0
  0
VERTEX
  5
E29
  8
0
 10
312.2421897639370059
 20
234.3906580741127073
 30
0.0
  0
SEQEND
  5
E2A
  8
0
  0
POLYLINE
  5
2E0
  8
0
 66
     1
 10
0.0
 20
0.0
 30
0.0
 70
     1
  0
VERTEX
  5
E2B
  8
0
 10
119.6328147269913984
 20
128.7838850055088074
 30
0.0
  0
VERTEX
  5
E2C
  8
0
 10
121.9828147269912932
 20
130.1406581381042997
 30
0.0
  0
VERTEX
  5
E2D
  8
0
 10
121.9828147269912932
 20
132.8542044032955971
 30
0.0
  0
VERTEX
  5
E2E
  8
0
 10
119.6328147269913984
 20
134.2109775358912884
 30
0.0
  0
VERTEX
  5
E2F
  8
0
 10
117.2828147269915036
 20
132.8542044032955971
 30
0.0
  0
VERTEX
  5
E30
  8
0
 10
117.2828147269915036
 20
130.1406581381042997
 30
0.0
  0
SEQEND
  5
E31
  8
0
  0
POLYLINE
  5
2E1
  8
0
 66
     1
 10
0.0
 20
0.0
 30
0.0
 70
     1
  0
VERTEX
  5
E32
  8
0
 10
325.9036434618000726
 20
140.7599312707000081
 30
0.0
  0
VERTEX
  5
E33
  8
0
 10
327.2604165943957923
 20
138.409931270700099
 30
0.0
  0
VERTEX
  5
E34
  8
0
 10
329.9739628595871181
 20
138.409931270700099
 30
0.0
  0
VERTEX
  5
E35
  8
0
 10
331.330735992182781
 20
140.7599312707000081
 30
0.0
  0
VERTEX
  5
E36
  8
0
 10
329.9739628595871181
 20
143.1099312706998887
 30
0.0
  0
VERTEX
  5
E37
  8
0
 10
327.2604165943957923
 20
143.1099312706998887
 30
0.0
  0
SEQEND
  5
E38
  8
0
  0
POLYLINE
  5
2E2
  8
0
 66
     1
 10
0.0
 20
0.0
 30
0.0
 70
     1
  0
VERTEX
  5
E39
  8
0
 10
119.6328147269913984
 20
233.0338850055086937
 30
0.0
  0
VERTEX
  5
E3A
  8
0
 10
121.9828147269912932
 20
234.3906581381042997
 30
0.0
  0
VERTEX
  5
E3B
  8
0
 10
121.9828147269912932
 20
237.1042044032955971
 30
0.0
  0
VERTEX
  5
E3C
  8
0
 10
119.6328147269913984
 20
238.4609775358912884
 30
0.0
  0
VERTEX
  5
E3D
  8
0
 10
117.2828147269915036
 20
237.1042044032955971
 30
0.0
  0
VERTEX
  5
E3E
  8
0
 10
117.2828147269915036
 20
234.3906581381042997
 30
0.0
  0
SEQEND
  5
E3F
  8
0
  0
POLYLINE
  5
2E3
  8
0
 66
     1
 10
0.0
 20
0.0
 30
0.0
 70
     1
  0
VERTEX
  5
E40
  8
0
 10
219.0390647993222046
 20
233.0338850055088926
 30
0.0
  0
VERTEX
  5
E41
  8
0
 10
221.3890647631569948
 20
234.3906582007446104
 30
0.0
  0
VERTEX
  5
E42
  8
0
 10
221.3890646908261886
 20
237.1042044659359078
 30
0.0
  0
VERTEX
  5
E43
  8
0
 10
219.0390646546607059
 20
238.4609775358912884
 30
0.0
  0
VERTEX
  5
E44
  8
0
 10
216.6890646908258873
 20
237.1042043406552864
 30
0.0
  0
VERTEX
  5
E45
  8
0
 10
216.6890647631566935
 20
234.390658075463989
 30
0.0
  0
SEQEND
  5
E46
  8
0
  0
POLYLINE
  5
2E4
  8
0
 66
     1
 10
0.0
 20
0.0
 30
0.0
 70
     1
  0
VERTEX
  5
E47
  8
0
 10
24.0796897269915497
 20
128.7838850055088074
 30
0.0
  0
VERTEX
  5
E48
  8
0
 10
26.4296897269914588
 20
130.1406581381042997
 30
0.0
  0
VERTEX
  5
E49
  8
0
 10
26.4296897269914588
 20
132.8542044032955971
 30
0.0
  0
VERTEX
  5
E4A
  8
0
 10
24.0796897269915497
 20
134.2109775358912884
 30
0.0
  0
VERTEX
  5
E4B
  8
0
 10
21.7296897269916407
 20
132.8542044032955971
 30
0.0
  0
VERTEX
  5
E4C
  8
0
 10
21.7296897269916407
 20
130.1406581381042997
 30
0.0
  0
SEQEND
  5
E4D
  8
0
  0
POLYLINE
  5
2E5
  8
0
 66
     1
 10
0.0
 20
0.0
 30
0.0
 70
     1
  0
VERTEX
  5
E4E
  8
0
 10
233.6171897269915121
 20
135.2474312706999058
 30
0.0
  0
VERTEX
  5
E4F
  8
0
 10
233.6171897269915121
 20
130.0974312706999001
 30
0.0
 42
0.4142135623730878
  0
VERTEX
  5
E50
  8
0
 10
235.7171897269913927
 20
127.9974312706999058
 30
0.0
  0
VERTEX
  5
E51
  8
0
 10
322.517189726991603
 20
127.9974312706999058
 30
0.0
 42
0.4142135623730975
  0
VERTEX
  5
E52
  8
0
 10
324.6171897269915121
 20
130.0974312706999001
 30
0.0
  0
VERTEX
  5
E53
  8
0
 10
324.6171897269915121
 20
230.4974312706999058
 30
0.0
 42
0.4142135623731064
  0
VERTEX
  5
E54
  8
0
 10
323.3671897269913984
 20
231.747431270699991
 30
0.0
  0
VERTEX
  5
E55
  8
0
 10
305.8171897269912733
 20
231.747431270699991
 30
0.0
 42
-0.4142135623731048
  0
VERTEX
  5
E56
  8
0
 10
305.5671897269912733
 20
231.997431270699991
 30
0.0
  0
VERTEX
  5
E57
  8
0
 10
305.5671897269912733
 20
237.1474312706999967
 30
0.0
 42
0.4142135623730854
  0
VERTEX
  5
E58
  8
0
 10
303.4671897269914211
 20
239.247431270699991
 30
0.0
  0
VERTEX
  5
E59
  8
0
 10
235.7171897269913927
 20
239.247431270699991
 30
0.0
 42
0.4142135623730854
  0
VERTEX
  5
E5A
  8
0
 10
233.6171897269915121
 20
237.1474312706999967
 30
0.0
  0
VERTEX
  5
E5B
  8
0
 10
233.6171897269915121
 20
231.997431270699991
 30
0.0
 42
-0.4142135623730966
  0
VERTEX
  5
E5C
  8
0
 10
233.3671897269915121
 20
231.747431270699991
 30
0.0
  0
VERTEX
  5
E5D
  8
0
 10
205.5609397269913927
 20
231.747431270699991
 30
0.0
 42
-0.414213562373096
  0
VERTEX
  5
E5E
  8
0
 10
205.3109397269913075
 20
231.997431270699991
 30
0.0
  0
VERTEX
  5
E5F
  8
0
 10
205.3109397269913075
 20
237.1474312706999967
 30
0.0
 42
0.4142135623730854
  0
VERTEX
  5
E60
  8
0
 10
203.2109397269913984
 20
239.247431270699991
 30
0.0
  0
VERTEX
  5
E61
  8
0
 10
135.4609397269913984
 20
239.247431270699991
 30
0.0
 42
0.4142135623730969
  0
VERTEX
  5
E62
  8
0
 10
133.3609397269914894
 20
237.1474312706999967
 30
0.0
  0
VERTEX
  5
E63
  8
0
 10
133.3609397269914894
 20
231.997431270699991
 30
0.0
 42
-0.4142135623730966
  0
VERTEX
  5
E64
  8
0
 10
133.1109397269914894
 20
231.747431270699991
 30
0.0
  0
VERTEX
  5
E65
  8
0
 10
105.3046897269913984
 20
231.747431270699991
 30
0.0
 42
-0.4142135623730944
  0
VERTEX
  5
E66
  8
0
 10
105.0546897269913984
 20
231.997431270699991
 30
0.0
  0
VERTEX
  5
E67
  8
0
 10
105.0546897269913984
 20
237.1474312706999967
 30
0.0
 42
0.4142135623730971
  0
VERTEX
  5
E68
  8
0
 10
102.9546897269915036
 20
239.247431270699991
 30
0.0
  0
VERTEX
  5
E69
  8
0
 10
35.2046897269915533
 20
239.247431270699991
 30
0.0
 42
0.4142135623730937
  0
VERTEX
  5
E6A
  8
0
 10
33.1046897269916371
 20
237.1474312706999967
 30
0.0
  0
VERTEX
  5
E6B
  8
0
 10
33.1046897269916371
 20
231.997431270699991
 30
0.0
 42
-0.414213562373102
  0
VERTEX
  5
E6C
  8
0
 10
32.8546897269916371
 20
231.747431270699991
 30
0.0
  0
VERTEX
  5
E6D
  8
0
 10
15.3046897269914499
 20
231.747431270699991
 30
0.0
 42
0.4142135623730974
  0
VERTEX
  5
E6E
  8
0
 10
14.0546897269914499
 20
230.4974312706999058
 30
0.0
  0
VERTEX
  5
E6F
  8
0
 10
14.0546897269914499
 20
136.7474312706999058
 30
0.0
 42
0.4142135623731015
  0
VERTEX
  5
E70
  8
0
 10
15.3046897269914499
 20
135.4974312706999058
 30
0.0
  0
VERTEX
  5
E71
  8
0
 10
32.8546897269916371
 20
135.4974312706999058
 30
0.0
 42
-0.4142135623730793
  0
VERTEX
  5
E72
  8
0
 10
33.1046897269916371
 20
135.2474312706999058
 30
0.0
  0
VERTEX
  5
E73
  8
0
 10
33.1046897269916371
 20
130.0974312706999001
 30
0.0
 42
0.4142135623730975
  0
VERTEX
  5
E74
  8
0
 10
35.2046897269915533
 20
127.9974312706999058
 30
0.0
  0
VERTEX
  5
E75
  8
0
 10
102.9546897269915036
 20
127.9974312706999058
 30
0.0
 42
0.4142135623730854
  0
VERTEX
  5
E76
  8
0
 10
105.0546897269913984
 20
130.0974312706999001
 30
0.0
  0
VERTEX
  5
E77
  8
0
 10
105.0546897269913984
 20
135.2474312706999058
 30
0.0
 42
-0.4142135623730951
  0
VERTEX
  5
E78
  8
0
 10
105.3046897269913984
 20
135.4974312706999058
 30
0.0
  0
VERTEX
  5
E79
  8
0
 10
133.1109397269914894
 20
135.4974312706999058
 30
0.0
 42
-0.4142135623730744
  0
VERTEX
  5
E7A
  8
0
 10
133.3609397269914894
 20
135.2474312706999058
 30
0.0
  0
VERTEX
  5
E7B
  8
0
 10
133.3609397269914894
 20
130.0974312706999001
 30
0.0
 42
0.4142135623730951
  0
VERTEX
  5
E7C
  8
0
 10
135.4609397269913984
 20
127.9974312706999058
 30
0.0
  0
VERTEX
  5
E7D
  8
0
 10
203.2109397269913984
 20
127.9974312706999058
 30
0.0
 42
0.4142135623730975
  0
VERTEX
  5
E7E
  8
0
 10
205.3109397269913075
 20
130.0974312706999001
 30
0.0
  0
VERTEX
  5
E7F
  8
0
 10
205.3109397269913075
 20
135.2474312706999058
 30
0.0
 42
-0.4142135623730951
  0
VERTEX
  5
E80
  8
0
 10
205.5609397269913927
 20
135.4974312706999058
 30
0.0
  0
VERTEX
  5
E81
  8
0
 10
233.3671897269915121
 20
135.4974312706999058
 30
0.0
 42
-0.4142135623730744
  0
SEQEND
  5
E82
  8
0
  0
POLYLINE
  5
2E6
  8
0
 66
     1
 10
0.0
 20
0.0
 30
0.0
 70
     1
  0
VERTEX
  5
E83
  8
0
 10
334.6171897269915121
 20
138.4974312706999058
 30
0.0
 42
-0.4142135623730964
  0
VERTEX
  5
E84
  8
0
 10
321.6171897269913984
 20
125.4974312706999058
 30
0.0
  0
VERTEX
  5
E85
  8
0
 10
17.0546897269914517
 20
125.4974312706999058
 30
0.0
 42
-0.414213562373093
  0
VERTEX
  5
E86
  8
0
 10
4.0546897269914552
 20
138.4974312706999058
 30
0.0
  0
VERTEX
  5
E87
  8
0
 10
4.0546897269914552
 20
228.747431270699991
 30
0.0
 42
-0.4142135623730951
  0
VERTEX
  5
E88
  8
0
 10
17.0546897269914517
 20
241.747431270699991
 30
0.0
  0
VERTEX
  5
E89
  8
0
 10
321.6171897269913984
 20
241.747431270699991
 30
0.0
 42
-0.4142135623730959
  0
VERTEX
  5
E8A
  8
0
 10
334.6171897269915121
 20
228.747431270699991
 30
0.0
  0
SEQEND
  5
E8B
  8
0
  0
POLYLINE
  5
2F5
  8
0
 66
     1
 10
0.0
 20
0.0
 30
0.0
 70
     1
  0
VERTEX
  5
EDA
  8
0
 10
219.0337691944014011
 20
8.7969540660633356
 30
0.0
  0
VERTEX
  5
EDB
  8
0
 10
221.3837691944013102
 20
10.1537271986590003
 30
0.0
  0
VERTEX
  5
EDC
  8
0
 10
221.3837691944013102
 20
12.8672734638503208
 30
0.0
  0
VERTEX
  5
EDD
  8
0
 10
219.0337691944014011
 20
14.2240465964459801
 30
0.0
  0
VERTEX
  5
EDE
  8
0
 10
216.6837691944014921
 20
12.8672734638503208
 30
0.0
  0
VERTEX
  5
EDF
  8
0
 10
216.6837691944014921
 20
10.1537271986590003
 30
0.0
  0
SEQEND
  5
EE0
  8
0
  0
POLYLINE
  5
2F6
  8
0
 66
     1
 10
0.0
 20
0.0
 30
0.0
 70
     1
  0
VERTEX
  5
EE1
  8
0
 10
24.0743941944015205
 20
113.046954066063293
 30
0.0
  0
VERTEX
  5
EE2
  8
0
 10
26.4243941944014296
 20
114.4037271986589985
 30
0.0
  0
VERTEX
  5
EE3
  8
0
 10
26.4243941944014296
 20
117.1172734638502959
 30
0.0
  0
VERTEX
  5
EE4
  8
0
 10
24.0743941944015205
 20
118.4740465964460014
 30
0.0
  0
VERTEX
  5
EE5
  8
0
 10
21.7243941944016115
 20
117.1172734638502959
 30
0.0
  0
VERTEX
  5
EE6
  8
0
 10
21.7243941944016115
 20
114.4037271986589985
 30
0.0
  0
SEQEND
  5
EE7
  8
0
  0
POLYLINE
  5
2F7
  8
0
 66
     1
 10
0.0
 20
0.0
 30
0.0
 70
     1
  0
VERTEX
  5
EE8
  8
0
 10
314.5868942682927809
 20
113.046954066063293
 30
0.0
  0
VERTEX
  5
EE9
  8
0
 10
316.9368942313471962
 20
114.4037272626506052
 30
0.0
  0
VERTEX
  5
EEA
  8
0
 10
316.936894157455697
 20
117.1172735278419026
 30
0.0
  0
VERTEX
  5
EEB
  8
0
 10
314.5868941205104079
 20
118.4740465964460014
 30
0.0
  0
VERTEX
  5
EEC
  8
0
 10
312.2368941574558789
 20
117.1172733998585045
 30
0.0
  0
VERTEX
  5
EED
  8
0
 10
312.2368942313469233
 20
114.4037271346674061
 30
0.0
  0
SEQEND
  5
EEE
  8
0
  0
POLYLINE
  5
2F8
  8
0
 66
     1
 10
0.0
 20
0.0
 30
0.0
 70
     1
  0
VERTEX
  5
EEF
  8
0
 10
119.6275191944014011
 20
8.7969540660633356
 30
0.0
  0
VERTEX
  5
EF0
  8
0
 10
121.977519194401296
 20
10.1537271986590003
 30
0.0
  0
VERTEX
  5
EF1
  8
0
 10
121.977519194401296
 20
12.8672734638503208
 30
0.0
  0
VERTEX
  5
EF2
  8
0
 10
119.6275191944014011
 20
14.2240465964459801
 30
0.0
  0
VERTEX
  5
EF3
  8
0
 10
117.2775191944015063
 20
12.8672734638503208
 30
0.0
  0
VERTEX
  5
EF4
  8
0
 10
117.2775191944015063
 20
10.1537271986590003
 30
0.0
  0
SEQEND
  5
EF5
  8
0
  0
POLYLINE
  5
2F9
  8
0
 66
     1
 10
0.0
 20
0.0
 30
0.0
 70
     1
  0
VERTEX
  5
EF6
  8
0
 10
325.8983479292101038
 20
20.7730003312547105
 30
0.0
  0
VERTEX
  5
EF7
  8
0
 10
327.2551210618058235
 20
18.4230003312548014
 30
0.0
  0
VERTEX
  5
EF8
  8
0
 10
329.9686673269970925
 20
18.4230003312548014
 30
0.0
  0
VERTEX
  5
EF9
  8
0
 10
331.3254404595928122
 20
20.7730003312547105
 30
0.0
  0
VERTEX
  5
EFA
  8
0
 10
329.9686673269970925
 20
23.1230003312546089
 30
0.0
  0
VERTEX
  5
EFB
  8
0
 10
327.2551210618058235
 20
23.1230003312546089
 30
0.0
  0
SEQEND
  5
EFC
  8
0
  0
POLYLINE
  5
2FA
  8
0
 66
     1
 10
0.0
 20
0.0
 30
0.0
 70
     1
  0
VERTEX
  5
EFD
  8
0
 10
119.6275191944014011
 20
113.046954066063293
 30
0.0
  0
VERTEX
  5
EFE
  8
0
 10
121.977519194401296
 20
114.4037271986589985
 30
0.0
  0
VERTEX
  5
EFF
  8
0
 10
121.977519194401296
 20
117.1172734638502959
 30
0.0
  0
VERTEX
  5
F00
  8
0
 10
119.6275191944014011
 20
118.4740465964460014
 30
0.0
  0
VERTEX
  5
F01
  8
0
 10
117.2775191944015063
 20
117.1172734638502959
 30
0.0
  0
VERTEX
  5
F02
  8
0
 10
117.2775191944015063
 20
114.4037271986589985
 30
0.0
  0
SEQEND
  5
F03
  8
0
  0
POLYLINE
  5
2FB
  8
0
 66
     1
 10
0.0
 20
0.0
 30
0.0
 70
     1
  0
VERTEX
  5
F04
  8
0
 10
219.0337692667322074
 20
113.0469540660635062
 30
0.0
  0
VERTEX
  5
F05
  8
0
 10
221.3837692305669123
 20
114.403727261299295
 30
0.0
  0
VERTEX
  5
F06
  8
0
 10
221.3837691582361913
 20
117.1172735264906066
 30
0.0
  0
VERTEX
  5
F07
  8
0
 10
219.0337691220707086
 20
118.4740465964460014
 30
0.0
  0
VERTEX
  5
F08
  8
0
 10
216.68376915823589
 20
117.1172734012099994
 30
0.0
  0
VERTEX
  5
F09
  8
0
 10
216.6837692305666963
 20
114.403727136018702
 30
0.0
  0
SEQEND
  5
F0A
  8
0
  0
POLYLINE
  5
2FC
  8
0
 66
     1
 10
0.0
 20
0.0
 30
0.0
 70
     1
  0
VERTEX
  5
F0B
  8
0
 10
24.0743941944015205
 20
8.7969540660633356
 30
0.0
  0
VERTEX
  5
F0C
  8
0
 10
26.4243941944014296
 20
10.1537271986590003
 30
0.0
  0
VERTEX
  5
F0D
  8
0
 10
26.4243941944014296
 20
12.8672734638503208
 30
0.0
  0
VERTEX
  5
F0E
  8
0
 10
24.0743941944015205
 20
14.2240465964459801
 30
0.0
  0
VERTEX
  5
F0F
  8
0
 10
21.7243941944016115
 20
12.8672734638503208
 30
0.0
  0
VERTEX
  5
F10
  8
0
 10
21.7243941944016115
 20
10.1537271986590003
 30
0.0
  0
SEQEND
  5
F11
  8
0
  0
POLYLINE
  5
2FD
  8
0
 66
     1
 10
0.0
 20
0.0
 30
0.0
 70
     1
  0
VERTEX
  5
F12
  8
0
 10
266.4618941944012818
 20
15.2605003312546597
 30
0.0
  0
VERTEX
  5
F13
  8
0
 10
266.4618941944012818
 20
11.9980003312548398
 30
0.0
 42
0.4142135623730951
  0
VERTEX
  5
F14
  8
0
 10
267.7118941944013955
 20
10.7480003312546106
 30
0.0
  0
VERTEX
  5
F15
  8
0
 10
323.3618941944013727
 20
10.7480003312546106
 30
0.0
 42
0.4142135623730911
  0
VERTEX
  5
F16
  8
0
 10
324.6118941944013727
 20
11.9980003312548398
 30
0.0
  0
VERTEX
  5
F17
  8
0
 10
324.6118941944013727
 20
110.5105003312546046
 30
0.0
 42
0.4142135623731064
  0
VERTEX
  5
F18
  8
0
 10
323.3618941944013727
 20
111.7605003312546046
 30
0.0
  0
VERTEX
  5
F19
  8
0
 10
15.2993941944014296
 20
111.7605003312546046
 30
0.0
 42
0.4142135623730969
  0
VERTEX
  5
F1A
  8
0
 10
14.0493941944014296
 20
110.5105003312546046
 30
0.0
  0
VERTEX
  5
F1B
  8
0
 10
14.0493941944014296
 20
16.7605003312546614
 30
0.0
 42
0.4142135623730891
  0
VERTEX
  5
F1C
  8
0
 10
15.2993941944014296
 20
15.5105003312546597
 30
0.0
  0
VERTEX
  5
F1D
  8
0
 10
266.2118941944012818
 20
15.5105003312546597
 30
0.0
 42
-0.4142135623731368
  0
SEQEND
  5
F1E
  8
0
  0
POLYLINE
  5
2FE
  8
0
 66
     1
 10
0.0
 20
0.0
 30
0.0
 70
     1
  0
VERTEX
  5
F1F
  8
0
 10
321.6118941944013727
 20
5.5105003312546614
 30
0.0
  0
VERTEX
  5
F20
  8
0
 10
17.0493941944014296
 20
5.5105003312546614
 30
0.0
 42
-0.414213562373093
  0
VERTEX
  5
F21
  8
0
 10
4.0493941944014287
 20
18.5105003312546614
 30
0.0
  0
VERTEX
  5
F22
  8
0
 10
4.0493941944014287
 20
108.7605003312546046
 30
0.0
 42
-0.4142135623730951
  0
VERTEX
  5
F23
  8
0
 10
17.0493941944014296
 20
121.7605003312546046
 30
0.0
  0
VERTEX
  5
F24
  8
0
 10
321.6118941944013727
 20
121.7605003312546046
 30
0.0
 42
-0.4142135623730959
  0
VERTEX
  5
F25
  8
0
 10
334.6118941944013727
 20
108.7605003312546046
 30
0.0
  0
VERTEX
  5
F26
  8
0
 10
334.6118941944013727
 20
18.5105003312546614
 30
0.0
 42
-0.4142135623730964
  0
SEQEND
  5
F27
  8
0
  0
POLYLINE
  5
30D
  8
0
 66
     1
 10
0.0
 20
0.0
 30
0.0
 70
     1
  0
VERTEX
  5
F76
  8
0
 10
555.503004429695352
 20
367.290564042611777
 30
0.0
  0
VERTEX
  5
F77
  8
0
 10
557.853004429695261
 20
368.6473371752072126
 30
0.0
  0
VERTEX
  5
F78
  8
0
 10
557.853004429695261
 20
371.3608834403984815
 30
0.0
  0
VERTEX
  5
F79
  8
0
 10
555.503004429695352
 20
372.7176565729942013
 30
0.0
  0
VERTEX
  5
F7A
  8
0
 10
553.1530044296955566
 20
371.3608834403984815
 30
0.0
  0
VERTEX
  5
F7B
  8
0
 10
553.1530044296955566
 20
368.6473371752072126
 30
0.0
  0
SEQEND
  5
F7C
  8
0
  0
POLYLINE
  5
30E
  8
0
 66
     1
 10
0.0
 20
0.0
 30
0.0
 70
     1
  0
VERTEX
  5
F7D
  8
0
 10
360.5436294296956135
 20
471.5405640426114928
 30
0.0
  0
VERTEX
  5
F7E
  8
0
 10
362.8936294296955225
 20
472.8973371752072126
 30
0.0
  0
VERTEX
  5
F7F
  8
0
 10
362.8936294296955225
 20
475.6108834403984815
 30
0.0
  0
VERTEX
  5
F80
  8
0
 10
360.5436294296956135
 20
476.9676565729942013
 30
0.0
  0
VERTEX
  5
F81
  8
0
 10
358.1936294296955907
 20
475.6108834403984815
 30
0.0
  0
VERTEX
  5
F82
  8
0
 10
358.1936294296955907
 20
472.8973371752072126
 30
0.0
  0
SEQEND
  5
F83
  8
0
  0
POLYLINE
  5
30F
  8
0
 66
     1
 10
0.0
 20
0.0
 30
0.0
 70
     1
  0
VERTEX
  5
F84
  8
0
 10
651.056129503586817
 20
471.5405640426114928
 30
0.0
  0
VERTEX
  5
F85
  8
0
 10
653.4061294666412323
 20
472.8973372391992029
 30
0.0
  0
VERTEX
  5
F86
  8
0
 10
653.4061293927496763
 20
475.610883504390074
 30
0.0
  0
VERTEX
  5
F87
  8
0
 10
651.0561293558042735
 20
476.9676565729942013
 30
0.0
  0
VERTEX
  5
F88
  8
0
 10
648.7061293927498582
 20
475.6108833764068891
 30
0.0
  0
VERTEX
  5
F89
  8
0
 10
648.7061294666409594
 20
472.8973371112155064
 30
0.0
  0
SEQEND
  5
F8A
  8
0
  0
POLYLINE
  5
310
  8
0
 66
     1
 10
0.0
 20
0.0
 30
0.0
 70
     1
  0
VERTEX
  5
F8B
  8
0
 10
456.0967544296954088
 20
367.290564042611777
 30
0.0
  0
VERTEX
  5
F8C
  8
0
 10
458.4467544296953747
 20
368.6473371752072126
 30
0.0
  0
VERTEX
  5
F8D
  8
0
 10
458.4467544296953747
 20
371.3608834403984815
 30
0.0
  0
VERTEX
  5
F8E
  8
0
 10
456.0967544296954088
 20
372.7176565729942013
 30
0.0
  0
VERTEX
  5
F8F
  8
0
 10
453.7467544296954998
 20
371.3608834403984815
 30
0.0
  0
VERTEX
  5
F90
  8
0
 10
453.7467544296954998
 20
368.6473371752072126
 30
0.0
  0
SEQEND
  5
F91
  8
0
  0
POLYLINE
  5
311
  8
0
 66
     1
 10
0.0
 20
0.0
 30
0.0
 70
     1
  0
VERTEX
  5
F92
  8
0
 10
662.3675831645041399
 20
379.2666103078029209
 30
0.0
  0
VERTEX
  5
F93
  8
0
 10
663.7243562970998028
 20
376.9166103078030119
 30
0.0
  0
VERTEX
  5
F94
  8
0
 10
666.4379025622911286
 20
376.9166103078030119
 30
0.0
  0
VERTEX
  5
F95
  8
0
 10
667.7946756948867915
 20
379.2666103078029209
 30
0.0
  0
VERTEX
  5
F96
  8
0
 10
666.4379025622911286
 20
381.6166103078027731
 30
0.0
  0
VERTEX
  5
F97
  8
0
 10
663.7243562970998028
 20
381.6166103078027731
 30
0.0
  0
SEQEND
  5
F98
  8
0
  0
POLYLINE
  5
312
  8
0
 66
     1
 10
0.0
 20
0.0
 30
0.0
 70
     1
  0
VERTEX
  5
F99
  8
0
 10
456.0967544296954088
 20
471.5405640426114928
 30
0.0
  0
VERTEX
  5
F9A
  8
0
 10
458.4467544296953747
 20
472.8973371752072126
 30
0.0
  0
VERTEX
  5
F9B
  8
0
 10
458.4467544296953747
 20
475.6108834403984815
 30
0.0
  0
VERTEX
  5
F9C
  8
0
 10
456.0967544296954088
 20
476.9676565729942013
 30
0.0
  0
VERTEX
  5
F9D
  8
0
 10
453.7467544296954998
 20
475.6108834403984815
 30
0.0
  0
VERTEX
  5
F9E
  8
0
 10
453.7467544296954998
 20
472.8973371752072126
 30
0.0
  0
SEQEND
  5
F9F
  8
0
  0
POLYLINE
  5
313
  8
0
 66
     1
 10
0.0
 20
0.0
 30
0.0
 70
     1
  0
VERTEX
  5
FA0
  8
0
 10
555.5030045020262151
 20
471.5405640426114928
 30
0.0
  0
VERTEX
  5
FA1
  8
0
 10
557.8530044658608631
 20
472.8973372378476938
 30
0.0
  0
VERTEX
  5
FA2
  8
0
 10
557.8530043935302274
 20
475.6108835030390196
 30
0.0
  0
VERTEX
  5
FA3
  8
0
 10
555.5030043573647163
 20
476.9676565729942013
 30
0.0
  0
VERTEX
  5
FA4
  8
0
 10
553.1530043935299545
 20
475.6108833777580003
 30
0.0
  0
VERTEX
  5
FA5
  8
0
 10
553.1530044658607039
 20
472.8973371125666176
 30
0.0
  0
SEQEND
  5
FA6
  8
0
  0
POLYLINE
  5
314
  8
0
 66
     1
 10
0.0
 20
0.0
 30
0.0
 70
     1
  0
VERTEX
  5
FA7
  8
0
 10
360.5436294296956135
 20
367.290564042611777
 30
0.0
  0
VERTEX
  5
FA8
  8
0
 10
362.8936294296955225
 20
368.6473371752072126
 30
0.0
  0
VERTEX
  5
FA9
  8
0
 10
362.8936294296955225
 20
371.3608834403984815
 30
0.0
  0
VERTEX
  5
FAA
  8
0
 10
360.5436294296956135
 20
372.7176565729942013
 30
0.0
  0
VERTEX
  5
FAB
  8
0
 10
358.1936294296955907
 20
371.3608834403984815
 30
0.0
  0
VERTEX
  5
FAC
  8
0
 10
358.1936294296955907
 20
368.6473371752072126
 30
0.0
  0
SEQEND
  5
FAD
  8
0
  0
POLYLINE
  5
315
  8
0
 66
     1
 10
0.0
 20
0.0
 30
0.0
 70
     1
  0
VERTEX
  5
FAE
  8
0
 10
602.931129429695261
 20
373.7541103078028755
 30
0.0
  0
VERTEX
  5
FAF
  8
0
 10
602.931129429695261
 20
370.4916103078027731
 30
0.0
 42
0.4142135623730951
  0
VERTEX
  5
FB0
  8
0
 10
604.181129429695261
 20
369.2416103078027731
 30
0.0
  0
VERTEX
  5
FB1
  8
0
 10
659.831129429695352
 20
369.2416103078027731
 30
0.0
 42
0.4142135623730869
  0
VERTEX
  5
FB2
  8
0
 10
661.081129429695352
 20
370.4916103078027731
 30
0.0
  0
VERTEX
  5
FB3
  8
0
 10
661.081129429695352
 20
469.0041103078028186
 30
0.0
 42
0.4142135623731062
  0
VERTEX
  5
FB4
  8
0
 10
659.831129429695352
 20
470.2541103078028186
 30
0.0
  0
VERTEX
  5
FB5
  8
0
 10
351.7686294296955225
 20
470.2541103078028186
 30
0.0
 42
0.4142135623730927
  0
VERTEX
  5
FB6
  8
0
 10
350.5186294296955225
 20
469.0041103078028186
 30
0.0
  0
VERTEX
  5
FB7
  8
0
 10
350.5186294296955225
 20
375.2541103078028755
 30
0.0
 42
0.4142135623731011
  0
VERTEX
  5
FB8
  8
0
 10
351.7686294296955225
 20
374.0041103078028755
 30
0.0
  0
VERTEX
  5
FB9
  8
0
 10
602.6811294296953747
 20
374.0041103078028755
 30
0.0
 42
-0.4142135623731159
  0
SEQEND
  5
FBA
  8
0
  0
POLYLINE
  5
316
  8
0
 66
     1
 10
0.0
 20
0.0
 30
0.0
 70
     1
  0
VERTEX
  5
FBB
  8
0
 10
671.081129429695352
 20
467.2541103078028186
 30
0.0
  0
VERTEX
  5
FBC
  8
0
 10
671.081129429695352
 20
377.0041103078028755
 30
0.0
 42
-0.4142135623730964
  0
VERTEX
  5
FBD
  8
0
 10
658.081129429695352
 20
364.0041103078028755
 30
0.0
  0
VERTEX
  5
FBE
  8
0
 10
353.5186294296955225
 20
364.0041103078028755
 30
0.0
 42
-0.4142135623730935
  0
VERTEX
  5
FBF
  8
0
 10
340.5186294296955225
 20
377.0041103078028755
 30
0.0
  0
VERTEX
  5
FC0
  8
0
 10
340.5186294296955225
 20
467.2541103078028186
 30
0.0
 42
-0.4142135623730951
  0
VERTEX
  5
FC1
  8
0
 10
353.5186294296955225
 20
480.2541103078028186
 30
0.0
  0
VERTEX
  5
FC2
  8
0
 10
658.081129429695352
 20
480.2541103078028186
 30
0.0
 42
-0.4142135623730959
  0
SEQEND
  5
FC3
  8
0
  0
POLYLINE
  5
325
  8
0
 66
     1
 10
0.0
 20
0.0
 30
0.0
 70
     1
  0
VERTEX
  5
1012
  8
0
 10
555.5107165151830486
 20
247.3237775208025937
 30
0.0
  0
VERTEX
  5
1013
  8
0
 10
557.860716515182844
 20
248.6805506533983134
 30
0.0
  0
VERTEX
  5
1014
  8
0
 10
557.860716515182844
 20
251.3940969185894119
 30
0.0
  0
VERTEX
  5
1015
  8
0
 10
555.5107165151830486
 20
252.7508700511851032
 30
0.0
  0
VERTEX
  5
1016
  8
0
 10
553.1607165151831396
 20
251.3940969185894119
 30
0.0
  0
VERTEX
  5
1017
  8
0
 10
553.1607165151831396
 20
248.6805506533983134
 30
0.0
  0
SEQEND
  5
1018
  8
0
  0
POLYLINE
  5
326
  8
0
 66
     1
 10
0.0
 20
0.0
 30
0.0
 70
     1
  0
VERTEX
  5
1019
  8
0
 10
360.5513415151830827
 20
351.5737775208027074
 30
0.0
  0
VERTEX
  5
101A
  8
0
 10
362.9013415151831055
 20
352.9305506533983134
 30
0.0
  0
VERTEX
  5
101B
  8
0
 10
362.9013415151831055
 20
355.6440969185894119
 30
0.0
  0
VERTEX
  5
101C
  8
0
 10
360.5513415151830827
 20
357.0008700511850748
 30
0.0
  0
VERTEX
  5
101D
  8
0
 10
358.2013415151831737
 20
355.6440969185894119
 30
0.0
  0
VERTEX
  5
101E
  8
0
 10
358.2013415151831737
 20
352.9305506533983134
 30
0.0
  0
SEQEND
  5
101F
  8
0
  0
POLYLINE
  5
327
  8
0
 66
     1
 10
0.0
 20
0.0
 30
0.0
 70
     1
  0
VERTEX
  5
1020
  8
0
 10
651.0638415890744
 20
351.5737775208027074
 30
0.0
  0
VERTEX
  5
1021
  8
0
 10
653.4138415521288152
 20
352.9305507173899059
 30
0.0
  0
VERTEX
  5
1022
  8
0
 10
653.4138414782373729
 20
355.6440969825811749
 30
0.0
  0
VERTEX
  5
1023
  8
0
 10
651.0638414412919701
 20
357.0008700511850748
 30
0.0
  0
VERTEX
  5
1024
  8
0
 10
648.7138414782375548
 20
355.6440968545978194
 30
0.0
  0
VERTEX
  5
1025
  8
0
 10
648.7138415521285424
 20
352.9305505894064936
 30
0.0
  0
SEQEND
  5
1026
  8
0
  0
POLYLINE
  5
328
  8
0
 66
     1
 10
0.0
 20
0.0
 30
0.0
 70
     1
  0
VERTEX
  5
1027
  8
0
 10
456.1044665151829918
 20
247.3237775208025937
 30
0.0
  0
VERTEX
  5
1028
  8
0
 10
458.4544665151829008
 20
248.6805506533983134
 30
0.0
  0
VERTEX
  5
1029
  8
0
 10
458.4544665151829008
 20
251.3940969185894119
 30
0.0
  0
VERTEX
  5
102A
  8
0
 10
456.1044665151829918
 20
252.7508700511851032
 30
0.0
  0
VERTEX
  5
102B
  8
0
 10
453.7544665151830827
 20
251.3940969185894119
 30
0.0
  0
VERTEX
  5
102C
  8
0
 10
453.7544665151830827
 20
248.6805506533983134
 30
0.0
  0
SEQEND
  5
102D
  8
0
  0
POLYLINE
  5
329
  8
0
 66
     1
 10
0.0
 20
0.0
 30
0.0
 70
     1
  0
VERTEX
  5
102E
  8
0
 10
662.3752952499917228
 20
259.2998237859940218
 30
0.0
  0
VERTEX
  5
102F
  8
0
 10
663.7320683825873857
 20
256.9498237859938854
 30
0.0
  0
VERTEX
  5
1030
  8
0
 10
666.4456146477787115
 20
256.9498237859938854
 30
0.0
  0
VERTEX
  5
1031
  8
0
 10
667.8023877803742607
 20
259.2998237859937944
 30
0.0
  0
VERTEX
  5
1032
  8
0
 10
666.4456146477787115
 20
261.649823785993874
 30
0.0
  0
VERTEX
  5
1033
  8
0
 10
663.7320683825873857
 20
261.649823785993874
 30
0.0
  0
SEQEND
  5
1034
  8
0
  0
POLYLINE
  5
32A
  8
0
 66
     1
 10
0.0
 20
0.0
 30
0.0
 70
     1
  0
VERTEX
  5
1035
  8
0
 10
456.1044665151829918
 20
351.5737775208027074
 30
0.0
  0
VERTEX
  5
1036
  8
0
 10
458.4544665151829008
 20
352.9305506533983134
 30
0.0
  0
VERTEX
  5
1037
  8
0
 10
458.4544665151829008
 20
355.6440969185894119
 30
0.0
  0
VERTEX
  5
1038
  8
0
 10
456.1044665151829918
 20
357.0008700511850748
 30
0.0
  0
VERTEX
  5
1039
  8
0
 10
453.7544665151830827
 20
355.6440969185894119
 30
0.0
  0
VERTEX
  5
103A
  8
0
 10
453.7544665151830827
 20
352.9305506533983134
 30
0.0
  0
SEQEND
  5
103B
  8
0
  0
POLYLINE
  5
32B
  8
0
 66
     1
 10
0.0
 20
0.0
 30
0.0
 70
     1
  0
VERTEX
  5
103C
  8
0
 10
555.510716587513798
 20
351.5737775208027074
 30
0.0
  0
VERTEX
  5
103D
  8
0
 10
557.860716551348446
 20
352.9305507160386242
 30
0.0
  0
VERTEX
  5
103E
  8
0
 10
557.8607164790176967
 20
355.6440969812297226
 30
0.0
  0
VERTEX
  5
103F
  8
0
 10
555.5107164428521855
 20
357.0008700511850748
 30
0.0
  0
VERTEX
  5
1040
  8
0
 10
553.1607164790175375
 20
355.6440968559491012
 30
0.0
  0
VERTEX
  5
1041
  8
0
 10
553.1607165513482869
 20
352.9305505907580027
 30
0.0
  0
SEQEND
  5
1042
  8
0
  0
POLYLINE
  5
32C
  8
0
 66
     1
 10
0.0
 20
0.0
 30
0.0
 70
     1
  0
VERTEX
  5
1043
  8
0
 10
360.5513415151830827
 20
247.3237775208025937
 30
0.0
  0
VERTEX
  5
1044
  8
0
 10
362.9013415151831055
 20
248.6805506533983134
 30
0.0
  0
VERTEX
  5
1045
  8
0
 10
362.9013415151831055
 20
251.3940969185894119
 30
0.0
  0
VERTEX
  5
1046
  8
0
 10
360.5513415151830827
 20
252.7508700511851032
 30
0.0
  0
VERTEX
  5
1047
  8
0
 10
358.2013415151831737
 20
251.3940969185894119
 30
0.0
  0
VERTEX
  5
1048
  8
0
 10
358.2013415151831737
 20
248.6805506533983134
 30
0.0
  0
SEQEND
  5
1049
  8
0
  0
POLYLINE
  5
32D
  8
0
 66
     1
 10
0.0
 20
0.0
 30
0.0
 70
     1
  0
VERTEX
  5
104A
  8
0
 10
602.938841515182844
 20
253.7873237859940048
 30
0.0
  0
VERTEX
  5
104B
  8
0
 10
602.938841515182844
 20
250.5248237859939024
 30
0.0
 42
0.4142135623730951
  0
VERTEX
  5
104C
  8
0
 10
604.188841515182844
 20
249.2748237859939024
 30
0.0
  0
VERTEX
  5
104D
  8
0
 10
659.8388415151830486
 20
249.2748237859939024
 30
0.0
 42
0.4142135623730911
  0
VERTEX
  5
104E
  8
0
 10
661.0888415151830486
 20
250.5248237859939024
 30
0.0
  0
VERTEX
  5
104F
  8
0
 10
661.0888415151830486
 20
349.0373237859939763
 30
0.0
 42
0.4142135623731066
  0
VERTEX
  5
1050
  8
0
 10
659.8388415151830486
 20
350.2873237859939763
 30
0.0
  0
VERTEX
  5
1051
  8
0
 10
351.7763415151831055
 20
350.2873237859939763
 30
0.0
 42
0.4142135623730967
  0
VERTEX
  5
1052
  8
0
 10
350.5263415151829918
 20
349.0373237859939763
 30
0.0
  0
VERTEX
  5
1053
  8
0
 10
350.5263415151829918
 20
255.2873237859940048
 30
0.0
 42
0.4142135623730891
  0
VERTEX
  5
1054
  8
0
 10
351.7763415151831055
 20
254.0373237859940048
 30
0.0
  0
VERTEX
  5
1055
  8
0
 10
602.688841515182844
 20
254.0373237859940048
 30
0.0
 42
-0.4142135623731575
  0
SEQEND
  5
1056
  8
0
  0
POLYLINE
  5
32E
  8
0
 66
     1
 10
0.0
 20
0.0
 30
0.0
 70
     1
  0
VERTEX
  5
1057
  8
0
 10
340.5263415151829918
 20
257.0373237859939763
 30
0.0
  0
VERTEX
  5
1058
  8
0
 10
340.5263415151829918
 20
347.2873237859939763
 30
0.0
 42
-0.4142135623730951
  0
VERTEX
  5
1059
  8
0
 10
353.5263415151831055
 20
360.2873237859939763
 30
0.0
  0
VERTEX
  5
105A
  8
0
 10
658.0888415151830486
 20
360.2873237859939763
 30
0.0
 42
-0.4142135623730953
  0
VERTEX
  5
105B
  8
0
 10
671.0888415151830486
 20
347.2873237859939763
 30
0.0
  0
VERTEX
  5
105C
  8
0
 10
671.0888415151830486
 20
257.0373237859939763
 30
0.0
 42
-0.4142135623730964
  0
VERTEX
  5
105D
  8
0
 10
658.0888415151830486
 20
244.0373237859940048
 30
0.0
  0
VERTEX
  5
105E
  8
0
 10
353.5263415151831055
 20
244.0373237859940048
 30
0.0
 42
-0.414213562373093
  0
SEQEND
  5
105F
  8
0
  0
CIRCLE
  5
340
  8
0
 10
632.699364966344092
 20
214.7193299106668007
 30
0.0
 40
1.599999999999987
  0
CIRCLE
  5
341
  8
0
 10
504.7893649663437259
 20
207.788565481931812
 30
0.0000000000000005
 40
1.6000000000000041
  0
CIRCLE
  5
342
  8
0
 10
376.8793649663439282
 20
214.7193299106668007
 30
0.0
 40
1.6000000000000001
  0
POLYLINE
  5
343
  8
0
 66
     1
 10
0.0
 20
0.0
 30
0.0
 70
     1
  0
VERTEX
  5
1072
  8
0
 10
398.7362098594135205
 20
216.0963871632579867
 30
0.0
  0
VERTEX
  5
1073
  8
0
 10
451.7362098594134068
 20
216.0963871632600046
 30
0.0
 42
0.4142135623730789
  0
VERTEX
  5
1074
  8
0
 10
452.7362098594135205
 20
217.0963871632600046
 30
0.0
  0
VERTEX
  5
1075
  8
0
 10
452.7362098594131226
 20
220.1339362905544021
 30
0.0
 42
0.4142135623730912
  0
VERTEX
  5
1076
  8
0
 10
451.7362098594130089
 20
221.1339362905544021
 30
0.0
  0
VERTEX
  5
1077
  8
0
 10
398.7362098594135205
 20
221.1339362905536916
 30
0.0
 42
0.4142135623730965
  0
VERTEX
  5
1078
  8
0
 10
397.7362098594135205
 20
220.1339362905536916
 30
0.0
  0
VERTEX
  5
1079
  8
0
 10
397.7362098594135205
 20
217.0963871632579867
 30
0.0
 42
0.4142135623730887
  0
SEQEND
  5
107A
  8
0
  0
CIRCLE
  5
344
  8
0
 10
554.2424581154981524
 20
233.0509556481974869
 30
0.0000000000000001
 40
1.6000000000000001
  0
CIRCLE
  5
345
  8
0
 10
454.836208115498323
 20
128.8009556481974869
 30
0.0
 40
1.6000000000000001
  0
CIRCLE
  5
346
  8
0
 10
554.2424581154981524
 20
128.8009556481974869
 30
0.0
 40
1.6000000000000001
  0
CIRCLE
  5
347
  8
0
 10
454.836208115498323
 20
233.0509556481974869
 30
0.0
 40
1.6000000000000001
  0
CIRCLE
  5
348
  8
0
 10
649.7955831154981752
 20
233.0509556481974869
 30
0.0000000000000001
 40
1.6000000000000001
  0
CIRCLE
  5
349
  8
0
 10
359.2830831154984139
 20
128.8009556481974869
 30
0.0
 40
1.599999999999999
  0
CIRCLE
  5
34A
  8
0
 10
663.8205831154982661
 20
138.0634556481975039
 30
0.0
 40
1.6000000000000001
  0
CIRCLE
  5
34B
  8
0
 10
359.2830831154984139
 20
233.0509556481974869
 30
0.0000000000000001
 40
1.6000000000000001
  0
POLYLINE
  5
34C
  8
0
 66
     1
 10
0.0
 20
0.0
 30
0.0
 70
     1
  0
VERTEX
  5
107B
  8
0
 10
340.508083115498323
 20
135.8009556481974869
 30
0.0
  0
VERTEX
  5
107C
  8
0
 10
340.508083115498323
 20
226.0509556481974869
 30
0.0
 42
-0.4142135623730952
  0
VERTEX
  5
107D
  8
0
 10
352.258083115498323
 20
237.8009556481974869
 30
0.0
  0
VERTEX
  5
107E
  8
0
 10
656.8205831154981524
 20
237.8009556481974869
 30
0.0
 42
-0.4142135623730962
  0
VERTEX
  5
107F
  8
0
 10
668.5705831154981524
 20
226.0509556481974869
 30
0.0
  0
VERTEX
  5
1080
  8
0
 10
668.5705831154981524
 20
135.8009556481974869
 30
0.0
 42
-0.4142135623730959
  0
VERTEX
  5
1081
  8
0
 10
656.8205831154981524
 20
124.0509556481975011
 30
0.0
  0
VERTEX
  5
1082
  8
0
 10
352.258083115498323
 20
124.0509556481975011
 30
0.0
 42
-0.4142135623730934
  0
SEQEND
  5
1083
  8
0
  0
ENDSEC
  0
EOF
